<?xml version="1.0" encoding="UTF-8" standalone="no"?>
<!-- Created with Inkscape (http://www.inkscape.org/) -->

<svg
   xmlns:dc="http://purl.org/dc/elements/1.1/"
   xmlns:cc="http://creativecommons.org/ns#"
   xmlns:rdf="http://www.w3.org/1999/02/22-rdf-syntax-ns#"
   xmlns:svg="http://www.w3.org/2000/svg"
   xmlns="http://www.w3.org/2000/svg"
   xmlns:sodipodi="http://sodipodi.sourceforge.net/DTD/sodipodi-0.dtd"
   xmlns:inkscape="http://www.inkscape.org/namespaces/inkscape"
   width="31.608887mm"
   height="10.724444mm"
   viewBox="0 0 111.99999 38"
   id="svg2"
   version="1.1"
   inkscape:version="0.91 r"
   sodipodi:docname="logo_2.svg">
  <defs
     id="defs4" />
  <sodipodi:namedview
     id="base"
     pagecolor="#ffffff"
     bordercolor="#666666"
     borderopacity="1.0"
     inkscape:pageopacity="0.0"
     inkscape:pageshadow="2"
     inkscape:zoom="11.2"
     inkscape:cx="60.269978"
     inkscape:cy="2.1775381"
     inkscape:document-units="px"
     inkscape:current-layer="layer1"
     showgrid="false"
     fit-margin-top="0"
     fit-margin-left="0"
     fit-margin-right="0"
     fit-margin-bottom="0"
     inkscape:window-width="1920"
     inkscape:window-height="1027"
     inkscape:window-x="0"
     inkscape:window-y="26"
     inkscape:window-maximized="1" />
  <metadata
     id="metadata7">
    <rdf:RDF>
      <cc:Work
         rdf:about="">
        <dc:format>image/svg+xml</dc:format>
        <dc:type
           rdf:resource="http://purl.org/dc/dcmitype/StillImage" />
        <dc:title />
      </cc:Work>
    </rdf:RDF>
  </metadata>
  <g
     inkscape:label="Layer 1"
     inkscape:groupmode="layer"
     id="layer1"
     transform="translate(-198.19712,-287.09182)">
    <text
       xml:space="preserve"
       style="font-style:normal;font-weight:normal;font-size:44.55101776px;line-height:125%;font-family:Sans;letter-spacing:0px;word-spacing:0px;fill:#000000;fill-opacity:1;stroke:none;stroke-width:1px;stroke-linecap:butt;stroke-linejoin:miter;stroke-opacity:1"
       x="182.66052"
       y="348.26846"
       id="text4144"
       sodipodi:linespacing="125%"
       transform="scale(1.0796569,0.92622014)"><tspan
         sodipodi:role="line"
         id="tspan4146"
         x="182.66052"
         y="348.26846"
         style="font-style:normal;font-variant:normal;font-weight:normal;font-stretch:normal;font-family:Daniel;-inkscape-font-specification:Daniel"><tspan
           style="fill:#4480cf;fill-opacity:1"
           id="tspan4156">W</tspan><tspan
           style="font-size:27.84438705px"
           id="tspan4148">hist</tspan></tspan></text>
    <path
       style="fill:#010101"
       d="m 278.25166,313.24389 c 0.24779,-0.0252 0.48506,-0.09 0.65888,-0.17943 0.0984,-0.0507 0.2697,-0.17767 0.33943,-0.25192 0.21019,-0.22346 0.37308,-0.53604 0.51857,-0.99504 0.0768,-0.24247 0.11328,-0.39012 0.0974,-0.39308 -0.008,-10e-4 -0.12939,0.0564 -0.27213,0.12794 -0.7571,0.38015 -1.1677,0.48334 -1.60968,0.40452 -0.17818,-0.0312 -0.27137,-0.0632 -0.41693,-0.14043 -0.21974,-0.11673 -0.39119,-0.27057 -0.53611,-0.48146 -0.27593,-0.40141 -0.35875,-0.90101 -0.22672,-1.36826 0.11079,-0.39202 0.32316,-0.69307 0.64701,-0.91696 0.50075,-0.34612 1.11556,-0.36116 1.65157,-0.0404 0.12666,0.0759 0.21364,0.14169 0.33896,0.25649 0.0551,0.0506 0.10331,0.0897 0.10723,0.0869 0.004,-0.002 -0.0231,-0.0788 -0.0594,-0.16967 -0.23935,-0.59396 -0.3013,-1.01322 -0.20932,-1.41508 0.0939,-0.4108 0.31925,-0.74603 0.65821,-0.97979 0.26563,-0.18316 0.53984,-0.27244 0.84943,-0.27627 0.13504,-0.001 0.40605,0.048 0.53169,0.0978 0.28792,0.11376 0.51247,0.29475 0.69552,0.56045 0.18239,0.26467 0.2765,0.55854 0.28548,0.89115 0.005,0.15347 -0.0423,0.42019 -0.099,0.56856 -0.13979,0.36559 -0.3221,0.64548 -0.62295,0.95567 -0.0658,0.0677 -0.11756,0.1258 -0.11518,0.12905 0.002,0.002 0.0557,-0.0135 0.11895,-0.037 0.2669,-0.0986 0.53366,-0.15644 0.73977,-0.15912 0.12374,-10e-4 0.38489,0.0436 0.49888,0.0859 0.10889,0.0408 0.25963,0.12215 0.35802,0.19325 0.26468,0.19109 0.4819,0.50323 0.57648,0.82835 0.14766,0.50752 0.0468,1.05556 -0.27168,1.47736 -0.20405,0.27019 -0.51818,0.4846 -0.83351,0.56902 -0.37962,0.10164 -0.70436,0.0572 -1.0994,-0.15015 -0.33208,-0.17438 -0.64182,-0.44342 -1.01688,-0.88335 -0.0513,-0.0601 -0.0978,-0.11032 -0.10319,-0.11127 -0.012,-0.002 -0.034,0.17243 -0.0462,0.4024 -0.0274,0.48072 0.0137,0.83081 0.13057,1.11444 0.0385,0.0943 0.15367,0.27378 0.22759,0.35619 0.13058,0.14542 0.32937,0.29024 0.55193,0.4021 l 0.12397,0.0623 -1.65257,-0.30394 -1.65258,-0.30394 0.13805,-0.0141 z"
       id="path4167"
       inkscape:connector-curvature="0"
       inkscape:transform-center-x="2.3221122"
       inkscape:transform-center-y="0.93532477" />
  </g>
</svg>
